Title:
After Lucia Aka Después de Lucía

Country:
Mexico/2012

Language:
Spanish

No Subtitle

Director:
Michel Franco

Writer:
Michel Franco (screenplay)

Stars:
Tessa Ia, Gonzalo Vega Jr., Tamara Yazbek

Synopsis:
Alejandra and her dad Roberto have just moved to town. She is new at school, he has a new job. Starting over is sometimes complicated when you have left so much behind. 

Trivia:

* Won prize Un Certain Regard Award, in Cannes Film Festival 2012

* Won prize Horizons Award, in San Sebástian Film Festival 2012

* The official submission of Mexico to the Best Foreign Language Film of the 85th Academy Awards 2013.

Imdb: 
http://www.imdb.com/title/tt2368749

Trailer: 
http://www.bandes-annonces.fr/film-2012/bande-annonce-despuesdelucia.html

Media Info:

General
Complete name                            : After.Lucia.[Despues.Lucia].2012.DVDRip.XviD.AC3.HORiZON-ArtSubs
Format                                   : AVI
Format/Info                              : Audio Video Interleave
File size                                : 1.46 GiB
Duration                                 : 1h 42mn
Overall bit rate                         : 2 033 Kbps

Video
ID                                       : 0
Format                                   : MPEG-4 Visual
Format profile                           : Advanced Simple@L5
Format settings, BVOP                    : 2
Format settings, QPel                    : No
Format settings, GMC                     : No warppoints
Format settings, Matrix                  : Default (MPEG)
Codec ID                                 : XVID
Codec ID/Hint                            : XviD
Duration                                 : 1h 42mn
Bit rate                                 : 1 831 Kbps
Width                                    : 704 pixels
Height                                   : 384 pixels
Display aspect ratio                     : 1.85:1
Frame rate                               : 23.976 fps
Color space                              : YUV
Chroma subsampling                       : 4:2:0
Bit depth                                : 8 bits
Scan type                                : Progressive
Compression mode                         : Lossy
Bits/(Pixel*Frame)                       : 0.283
Stream size                              : 1.31 GiB (90%)
Writing library                          : XviD 1.2.1 (UTC 2008-12-04)

Audio
ID                                       : 1
Format                                   : AC-3
Format/Info                              : Audio Coding 3
Mode extension                           : CM (complete main)
Format settings, Endianness              : Big
Codec ID                                 : 2000
Duration                                 : 1h 42mn
Bit rate mode                            : Constant
Bit rate                                 : 192 Kbps
Channel(s)                               : 2 channels
Channel positions                        : Front: L R
Sampling rate                            : 48.0 KHz
Bit depth                                : 16 bits
Compression mode                         : Lossy
Stream size                              : 141 MiB (9%)
Alignment                                : Split accross interleaves
Interleave, duration                     : 42 ms (1.00 video frame)
Interleave, preload duration             : 500 ms

